<svg width="182" height="54" viewBox="0 0 182 54" fill="none" xmlns="http://www.w3.org/2000/svg">
<circle cx="25" cy="25" r="25" fill="#F93F04"/>
<path d="M36.3746 32.25H12.6251C12.2798 32.25 12.0001 32.5297 12.0001 32.875V34.1249C12.0001 34.4702 12.2798 34.7499 12.6251 34.7499H36.3746C36.72 34.7499 36.9996 34.4702 36.9996 34.1249V32.875C36.9996 32.5297 36.72 32.25 36.3746 32.25ZM15.1465 28.0809C15.3918 28.3481 15.7364 28.4997 16.0969 28.4993L21.196 28.4922C21.5984 28.4917 21.9951 28.3964 22.3538 28.2141L33.7192 22.4466C34.7637 21.9166 35.7001 21.1599 36.3371 20.169C37.0524 19.0565 37.1301 18.2514 36.8477 17.6827C36.5661 17.1135 35.8813 16.6956 34.5723 16.6104C33.4063 16.5346 32.2466 16.8417 31.2021 17.3713L27.3541 19.324L18.8113 16.1186C18.7086 16.0494 18.5893 16.0089 18.4657 16.0013C18.342 15.9937 18.2186 16.0192 18.1082 16.0753L15.5399 17.3788C15.1231 17.5901 15.0223 18.1463 15.3379 18.4932L21.4402 22.3252L17.4086 24.3712L14.5825 22.9466C14.4851 22.8975 14.3776 22.872 14.2685 22.8722C14.1595 22.8723 14.052 22.8981 13.9548 22.9474L12.3872 23.7431C11.9794 23.9501 11.872 24.49 12.1696 24.84L15.1465 28.0809Z" fill="white"/>
<path d="M63.688 22.28V27.88H71.208V31.432H63.688V37.352H72.168V41H59.208V18.632H72.168V22.28H63.688ZM80.291 41C79.6465 41 79.041 40.8796 78.4746 40.6387C77.9082 40.3913 77.4102 40.056 76.9805 39.6328C76.5573 39.2031 76.222 38.7051 75.9746 38.1387C75.7337 37.5723 75.6133 36.9668 75.6133 36.3223V33.2168H74.3145V30.5605H75.6133V26.3809H78.2695V30.5605H82.3125V33.2168H78.2695V36.3223C78.2695 36.6022 78.3216 36.8659 78.4258 37.1133C78.5299 37.3542 78.6732 37.5658 78.8555 37.748C79.0378 37.9303 79.2526 38.0768 79.5 38.1875C79.7474 38.2917 80.0111 38.3438 80.291 38.3438H82.3125V41H80.291ZM86.4824 41H83.8164V26.3809H86.4824V31C86.8014 30.7591 87.1302 30.5898 87.4688 30.4922C87.8073 30.388 88.1523 30.3359 88.5039 30.3359C89.1484 30.3359 89.7539 30.4596 90.3203 30.707C90.8867 30.9479 91.3783 31.2832 91.7949 31.7129C92.2181 32.1361 92.5501 32.6341 92.791 33.207C93.0384 33.7734 93.1621 34.3789 93.1621 35.0234V41H90.4766V35.0234H90.4961C90.4961 34.75 90.444 34.4928 90.3398 34.252C90.2357 34.0046 90.0924 33.7897 89.9102 33.6074C89.7279 33.4251 89.5163 33.2819 89.2754 33.1777C89.0345 33.0736 88.7773 33.0215 88.5039 33.0215C88.224 33.0215 87.9603 33.0736 87.7129 33.1777C87.4655 33.2819 87.2507 33.4251 87.0684 33.6074C86.8861 33.7897 86.7428 34.0046 86.6387 34.252C86.5345 34.4928 86.4824 34.75 86.4824 35.0234V41ZM98.2109 27.6992C98.2109 27.9466 98.1621 28.1777 98.0645 28.3926C97.9733 28.6074 97.8464 28.7962 97.6836 28.959C97.5208 29.1152 97.3288 29.2422 97.1074 29.3398C96.8926 29.431 96.6615 29.4766 96.4141 29.4766C96.1667 29.4766 95.9323 29.431 95.7109 29.3398C95.4961 29.2422 95.3073 29.1152 95.1445 28.959C94.9883 28.7962 94.8613 28.6074 94.7637 28.3926C94.6725 28.1777 94.627 27.9466 94.627 27.6992C94.627 27.4583 94.6725 27.2305 94.7637 27.0156C94.8613 26.7943 94.9883 26.6055 95.1445 26.4492C95.3073 26.2865 95.4961 26.1595 95.7109 26.0684C95.9323 25.9707 96.1667 25.9219 96.4141 25.9219C96.6615 25.9219 96.8926 25.9707 97.1074 26.0684C97.3288 26.1595 97.5208 26.2865 97.6836 26.4492C97.8464 26.6055 97.9733 26.7943 98.0645 27.0156C98.1621 27.2305 98.2109 27.4583 98.2109 27.6992ZM97.752 41H95.0664V30.541H97.752V41ZM109.9 35.6777C109.9 36.459 109.76 37.1882 109.48 37.8652C109.201 38.5358 108.82 39.1185 108.338 39.6133C107.856 40.1016 107.29 40.4889 106.639 40.7754C105.994 41.0553 105.301 41.1953 104.559 41.1953C103.823 41.1953 103.13 41.0553 102.479 40.7754C101.834 40.4889 101.268 40.1016 100.779 39.6133C100.298 39.1185 99.9167 38.5358 99.6367 37.8652C99.3568 37.1882 99.2168 36.459 99.2168 35.6777C99.2168 34.8835 99.3568 34.1478 99.6367 33.4707C99.9167 32.7936 100.298 32.2109 100.779 31.7227C101.268 31.2279 101.834 30.8405 102.479 30.5605C103.13 30.2806 103.823 30.1406 104.559 30.1406C105.301 30.1406 105.994 30.2741 106.639 30.541C107.29 30.8014 107.856 31.1758 108.338 31.6641C108.82 32.1458 109.201 32.7285 109.48 33.4121C109.76 34.0892 109.9 34.8444 109.9 35.6777ZM107.215 35.6777C107.215 35.248 107.143 34.8607 107 34.5156C106.863 34.1641 106.674 33.8646 106.434 33.6172C106.193 33.3633 105.91 33.1712 105.584 33.041C105.265 32.9043 104.923 32.8359 104.559 32.8359C104.194 32.8359 103.849 32.9043 103.523 33.041C103.204 33.1712 102.924 33.3633 102.684 33.6172C102.449 33.8646 102.264 34.1641 102.127 34.5156C101.99 34.8607 101.922 35.248 101.922 35.6777C101.922 36.0814 101.99 36.4557 102.127 36.8008C102.264 37.1458 102.449 37.4453 102.684 37.6992C102.924 37.9531 103.204 38.1549 103.523 38.3047C103.849 38.4479 104.194 38.5195 104.559 38.5195C104.923 38.5195 105.265 38.4512 105.584 38.3145C105.91 38.1777 106.193 37.9857 106.434 37.7383C106.674 37.4909 106.863 37.1914 107 36.8398C107.143 36.4883 107.215 36.1009 107.215 35.6777ZM117.537 41H114.744V29.7988H110.535V26.9961H121.736V29.7988H117.537V41ZM131.404 35.6777C131.404 36.459 131.264 37.1882 130.984 37.8652C130.704 38.5358 130.324 39.1185 129.842 39.6133C129.36 40.1016 128.794 40.4889 128.143 40.7754C127.498 41.0553 126.805 41.1953 126.062 41.1953C125.327 41.1953 124.633 41.0553 123.982 40.7754C123.338 40.4889 122.771 40.1016 122.283 39.6133C121.801 39.1185 121.421 38.5358 121.141 37.8652C120.861 37.1882 120.721 36.459 120.721 35.6777C120.721 34.8835 120.861 34.1478 121.141 33.4707C121.421 32.7936 121.801 32.2109 122.283 31.7227C122.771 31.2279 123.338 30.8405 123.982 30.5605C124.633 30.2806 125.327 30.1406 126.062 30.1406C126.805 30.1406 127.498 30.2741 128.143 30.541C128.794 30.8014 129.36 31.1758 129.842 31.6641C130.324 32.1458 130.704 32.7285 130.984 33.4121C131.264 34.0892 131.404 34.8444 131.404 35.6777ZM128.719 35.6777C128.719 35.248 128.647 34.8607 128.504 34.5156C128.367 34.1641 128.178 33.8646 127.938 33.6172C127.697 33.3633 127.413 33.1712 127.088 33.041C126.769 32.9043 126.427 32.8359 126.062 32.8359C125.698 32.8359 125.353 32.9043 125.027 33.041C124.708 33.1712 124.428 33.3633 124.188 33.6172C123.953 33.8646 123.768 34.1641 123.631 34.5156C123.494 34.8607 123.426 35.248 123.426 35.6777C123.426 36.0814 123.494 36.4557 123.631 36.8008C123.768 37.1458 123.953 37.4453 124.188 37.6992C124.428 37.9531 124.708 38.1549 125.027 38.3047C125.353 38.4479 125.698 38.5195 126.062 38.5195C126.427 38.5195 126.769 38.4512 127.088 38.3145C127.413 38.1777 127.697 37.9857 127.938 37.7383C128.178 37.4909 128.367 37.1914 128.504 36.8398C128.647 36.4883 128.719 36.1009 128.719 35.6777ZM140.564 39.7793C140.35 39.9746 140.118 40.1602 139.871 40.3359C139.63 40.5052 139.376 40.6549 139.109 40.7852C138.842 40.9089 138.566 41.0065 138.279 41.0781C137.999 41.1562 137.713 41.1953 137.42 41.1953C136.775 41.1953 136.17 41.0814 135.604 40.8535C135.037 40.6257 134.539 40.3034 134.109 39.8867C133.686 39.4635 133.351 38.9525 133.104 38.3535C132.863 37.748 132.742 37.071 132.742 36.3223V30.541H135.398V36.3223C135.398 36.6738 135.451 36.9896 135.555 37.2695C135.665 37.543 135.812 37.7741 135.994 37.9629C136.176 38.1517 136.388 38.2949 136.629 38.3926C136.876 38.4902 137.14 38.5391 137.42 38.5391C137.693 38.5391 137.951 38.4772 138.191 38.3535C138.439 38.2233 138.654 38.054 138.836 37.8457C139.018 37.6374 139.161 37.403 139.266 37.1426C139.37 36.8757 139.422 36.6022 139.422 36.3223V30.541H142.088V41H141.443L140.564 39.7793ZM146.795 41H144.129V30.541H144.773L145.652 31.7812C146.082 31.3906 146.57 31.0911 147.117 30.8828C147.664 30.668 148.23 30.5605 148.816 30.5605H151.17V33.2168H148.816C148.536 33.2168 148.273 33.2689 148.025 33.373C147.778 33.4772 147.563 33.6204 147.381 33.8027C147.199 33.985 147.055 34.1999 146.951 34.4473C146.847 34.6947 146.795 34.9583 146.795 35.2383V41ZM155.555 27.6992C155.555 27.9466 155.506 28.1777 155.408 28.3926C155.317 28.6074 155.19 28.7962 155.027 28.959C154.865 29.1152 154.673 29.2422 154.451 29.3398C154.236 29.431 154.005 29.4766 153.758 29.4766C153.51 29.4766 153.276 29.431 153.055 29.3398C152.84 29.2422 152.651 29.1152 152.488 28.959C152.332 28.7962 152.205 28.6074 152.107 28.3926C152.016 28.1777 151.971 27.9466 151.971 27.6992C151.971 27.4583 152.016 27.2305 152.107 27.0156C152.205 26.7943 152.332 26.6055 152.488 26.4492C152.651 26.2865 152.84 26.1595 153.055 26.0684C153.276 25.9707 153.51 25.9219 153.758 25.9219C154.005 25.9219 154.236 25.9707 154.451 26.0684C154.673 26.1595 154.865 26.2865 155.027 26.4492C155.19 26.6055 155.317 26.7943 155.408 27.0156C155.506 27.2305 155.555 27.4583 155.555 27.6992ZM155.096 41H152.41V30.541H155.096V41ZM162.879 41H156.785V38.3438H162.879C163.061 38.3438 163.217 38.2786 163.348 38.1484C163.478 38.0182 163.543 37.862 163.543 37.6797C163.543 37.4909 163.478 37.3672 163.348 37.3086C163.217 37.25 163.061 37.2207 162.879 37.2207H160.105C159.643 37.2207 159.21 37.1328 158.807 36.957C158.403 36.7812 158.051 36.5436 157.752 36.2441C157.452 35.9382 157.215 35.5833 157.039 35.1797C156.87 34.776 156.785 34.3431 156.785 33.8809C156.785 33.4186 156.87 32.9857 157.039 32.582C157.215 32.1784 157.452 31.8268 157.752 31.5273C158.051 31.2279 158.403 30.9935 158.807 30.8242C159.21 30.6484 159.643 30.5605 160.105 30.5605H165.506V33.2168H160.105C159.923 33.2168 159.767 33.2819 159.637 33.4121C159.507 33.5423 159.441 33.6986 159.441 33.8809C159.441 34.0697 159.507 34.2324 159.637 34.3691C159.767 34.4993 159.923 34.5645 160.105 34.5645H162.879C163.335 34.5645 163.764 34.6426 164.168 34.7988C164.572 34.9486 164.923 35.1602 165.223 35.4336C165.522 35.707 165.76 36.0358 165.936 36.4199C166.111 36.804 166.199 37.224 166.199 37.6797C166.199 38.1419 166.111 38.5749 165.936 38.9785C165.76 39.3757 165.522 39.7272 165.223 40.0332C164.923 40.3327 164.572 40.5703 164.168 40.7461C163.764 40.9154 163.335 41 162.879 41ZM180.926 41H178.27V34.3594C178.27 34.1771 178.234 34.0046 178.162 33.8418C178.097 33.679 178.003 33.5358 177.879 33.4121C177.755 33.2884 177.612 33.194 177.449 33.1289C177.286 33.0573 177.114 33.0215 176.932 33.0215C176.749 33.0215 176.577 33.0573 176.414 33.1289C176.258 33.194 176.118 33.2884 175.994 33.4121C175.877 33.5358 175.783 33.679 175.711 33.8418C175.646 34.0046 175.613 34.1771 175.613 34.3594V41H172.947V34.3594C172.947 34.1771 172.911 34.0046 172.84 33.8418C172.775 33.679 172.68 33.5358 172.557 33.4121C172.433 33.2884 172.29 33.194 172.127 33.1289C171.964 33.0573 171.792 33.0215 171.609 33.0215C171.427 33.0215 171.255 33.0573 171.092 33.1289C170.936 33.194 170.796 33.2884 170.672 33.4121C170.555 33.5358 170.46 33.679 170.389 33.8418C170.324 34.0046 170.291 34.1771 170.291 34.3594V41H167.625V30.541H168.27L168.992 31.3418C169.363 31.0293 169.77 30.7884 170.213 30.6191C170.662 30.4434 171.128 30.3555 171.609 30.3555C172.098 30.3555 172.573 30.4466 173.035 30.6289C173.504 30.8112 173.914 31.127 174.266 31.5762C174.428 31.3548 174.614 31.166 174.822 31.0098C175.031 30.8535 175.249 30.7266 175.477 30.6289C175.711 30.5312 175.952 30.4629 176.199 30.4238C176.447 30.3783 176.691 30.3555 176.932 30.3555C177.485 30.3555 178.003 30.4596 178.484 30.668C178.973 30.8763 179.396 31.1628 179.754 31.5273C180.118 31.8854 180.405 32.3086 180.613 32.7969C180.822 33.2852 180.926 33.806 180.926 34.3594V41Z" fill="black"/>
</svg>
