<svg width="35" height="35" viewBox="0 0 35 35" fill="none" xmlns="http://www.w3.org/2000/svg">
<path d="M2.42371 6.61951L17.8182 16.0188L23.3614 10.4756L5.38453 3.65869L2.42371 6.61951Z" fill="#0085FF"/>
<path d="M28.3809 32.5769L18.9817 17.1824L24.5249 11.6392L31.3418 29.616L28.3809 32.5769Z" fill="#0085FF"/>
<path d="M30.8651 28.3589L27.7238 31.5003L28.381 32.5768L31.3418 29.616L30.8651 28.3589Z" fill="#0085FF"/>
<path d="M6.6416 4.13536L3.50023 7.27673L2.42371 6.61951L5.38453 3.65869L6.6416 4.13536Z" fill="#0085FF"/>
<path d="M28.381 32.8546C28.3702 32.8546 28.3592 32.8539 28.3482 32.8527C28.2637 32.8426 28.1884 32.7942 28.1439 32.7216L18.7445 17.3271C18.6777 17.2176 18.6945 17.0767 18.7852 16.986L24.3284 11.4428C24.3949 11.3761 24.4908 11.3474 24.5831 11.3677C24.6752 11.3875 24.7512 11.4525 24.7845 11.5407L31.6014 29.5177C31.6402 29.6198 31.6154 29.7352 31.5381 29.8126L28.5774 32.7732C28.525 32.8256 28.4542 32.8546 28.381 32.8546ZM19.3326 17.2242L28.4341 32.1309L31.0182 29.5467L24.4174 12.1393L19.3326 17.2242Z" fill="black" fill-opacity="0.56"/>
<path d="M17.8182 16.2966C17.7684 16.2966 17.7183 16.2832 17.6736 16.2559L2.27908 6.85647C2.20644 6.81216 2.15797 6.73689 2.14797 6.65217C2.13783 6.56772 2.16714 6.48314 2.22741 6.423L5.18823 3.46232C5.26545 3.3851 5.38101 3.3601 5.48309 3.39899L23.4599 10.2159C23.5481 10.2492 23.6133 10.3252 23.633 10.4173C23.6529 10.5095 23.6245 10.6053 23.5579 10.672L18.0147 16.2152C17.9611 16.2688 17.8901 16.2966 17.8182 16.2966ZM2.86977 6.56619L17.7765 15.6677L22.8612 10.583L5.45406 3.98204L2.86977 6.56619Z" fill="black" fill-opacity="0.56"/>
<path d="M16.2106 12.9349C16.1645 12.9349 16.1178 12.9235 16.0746 12.8992L3.38702 5.76187C3.25327 5.6866 3.20591 5.51729 3.28105 5.38354C3.35619 5.24979 3.52549 5.20201 3.65938 5.27757L16.347 12.4149C16.4807 12.4902 16.5281 12.6595 16.4529 12.7932C16.402 12.8839 16.3077 12.9349 16.2106 12.9349Z" fill="black" fill-opacity="0.56"/>
<path d="M29.4811 31.7551C29.384 31.7551 29.2897 31.7041 29.2387 31.6134L22.1014 18.9257C22.0261 18.7919 22.0736 18.6226 22.2074 18.5473C22.3409 18.4718 22.5106 18.5196 22.5857 18.6533L29.7231 31.341C29.7983 31.4748 29.7508 31.6441 29.6171 31.7194C29.574 31.7437 29.5272 31.7551 29.4811 31.7551Z" fill="black" fill-opacity="0.56"/>
<path d="M6.03382 28.9666C4.62855 27.5613 4.57924 25.2984 5.92215 23.8333L26.098 1.91685C27.9936 -0.1905 31.269 -0.277166 33.2733 1.72713C35.2776 3.73143 35.191 7.00669 33.0836 8.90237L11.1671 29.0783C9.70199 30.4212 7.43909 30.372 6.03382 28.9666Z" fill="#F4EFED"/>
<path d="M33.2735 1.72715C33.1265 1.58021 32.972 1.4459 32.8124 1.32132C34.3858 3.33812 34.1697 6.27894 32.2168 8.03545L10.3004 28.2113C8.98917 29.4133 7.03946 29.4991 5.63696 28.4967C5.7546 28.6613 5.88641 28.819 6.03404 28.9666C7.43931 30.372 9.70222 30.4212 11.1674 29.0783L33.0838 8.90239C35.1911 7.00685 35.2778 3.73145 33.2735 1.72715Z" fill="#D6D1CF"/>
<path d="M33.2734 1.72713C33.4204 1.87407 33.5547 2.02866 33.6792 2.18824C31.6624 0.614774 28.7216 0.830884 26.9651 2.78379L6.78909 24.7002C5.58729 26.0115 5.50132 27.9612 6.50368 29.3637C6.33909 29.246 6.18146 29.1142 6.03382 28.9666C4.62855 27.5613 4.57924 25.2984 5.92215 23.8333L26.0982 1.91685C27.9937 -0.1905 31.2691 -0.277166 33.2734 1.72713Z" fill="white"/>
<path d="M31.1493 8.42337L26.5771 3.85117L26.911 3.51729C28.1737 2.25465 30.2207 2.25465 31.4832 3.51729C32.7459 4.77992 32.7459 6.82699 31.4832 8.08949L31.1493 8.42337Z" fill="#0085FF"/>
<path d="M8.65881 30.3348C7.63687 30.3348 6.61716 29.9426 5.83772 29.163C4.32286 27.6481 4.27022 25.2247 5.71772 23.6455L25.894 1.72855C26.8603 0.654523 28.1907 0.0404978 29.638 0.00230353C31.0868 -0.0401963 32.4463 0.506746 33.4699 1.53063C34.4937 2.55437 35.0365 3.9152 34.9983 5.36256C34.9602 6.80991 34.3462 8.14032 33.2698 9.10879L11.3555 29.2827C10.5888 29.9855 9.62284 30.3348 8.65881 30.3348ZM6.23049 28.7704C7.53438 30.0741 9.62034 30.1195 10.9796 28.8736L32.8958 8.69796C33.8601 7.83046 34.4088 6.64144 34.443 5.34811C34.4772 4.05478 33.992 2.83854 33.0772 1.92368C32.1622 1.00869 30.9447 0.525079 29.6527 0.557856C28.3594 0.592023 27.1704 1.14063 26.305 2.10271L6.12688 24.0215C4.88133 25.3802 4.92661 27.4663 6.23049 28.7704Z" fill="black" fill-opacity="0.56"/>
<path d="M24.0908 6.24406C24.0237 6.24406 23.9561 6.21975 23.9027 6.17073C23.7899 6.06684 23.7826 5.89101 23.8865 5.77823L24.999 4.5699C25.1027 4.45712 25.2787 4.44976 25.3915 4.55365C25.5042 4.65754 25.5116 4.83337 25.4077 4.94615L24.2952 6.15448C24.2405 6.21392 24.1658 6.24406 24.0908 6.24406Z" fill="black" fill-opacity="0.56"/>
<path d="M31.1489 8.7013C31.0778 8.7013 31.0068 8.67422 30.9525 8.61991L26.3802 4.04757C26.2717 3.9391 26.2717 3.76327 26.3802 3.6548L26.7141 3.32091C28.0828 1.9523 30.3104 1.95217 31.6792 3.32091C33.0481 4.68979 33.0481 6.91714 31.6792 8.28602L31.3453 8.61991C31.2911 8.67408 31.22 8.7013 31.1489 8.7013ZM26.9695 3.85118L31.149 8.03075L31.2865 7.89325C32.4388 6.74089 32.4388 4.86604 31.2865 3.71368C30.1341 2.56119 28.2592 2.56147 27.107 3.71368L26.9695 3.85118Z" fill="black" fill-opacity="0.56"/>
<path d="M11.9082 23.0925L2.8285 20.5141L0.277954 23.0647L8.27403 26.7266L11.936 34.7227L14.4865 32.1721L11.9082 23.0925Z" fill="#0085FF"/>
<path d="M14.103 30.8219L11.3914 33.5336L11.9359 34.7227L14.4865 32.1722L14.103 30.8219Z" fill="#0085FF"/>
<path d="M4.17877 20.8976L1.46712 23.6093L0.277954 23.0647L2.8285 20.5141L4.17877 20.8976Z" fill="#0085FF"/>
<path d="M11.9359 35.0005C11.9195 35.0005 11.9031 34.9989 11.8867 34.9961C11.7971 34.98 11.7211 34.9211 11.6834 34.8384L8.06449 26.9362L0.162172 23.3173C0.0793946 23.2795 0.020506 23.2036 0.00439494 23.114C-0.0117161 23.0244 0.0170338 22.9326 0.081339 22.8683L2.63188 20.3177C2.70313 20.2464 2.80758 20.2193 2.9041 20.2469L11.9839 22.8251C12.0766 22.8513 12.1489 22.9238 12.1752 23.0165L14.7534 32.0962C14.7808 32.193 14.7538 32.2971 14.6825 32.3684L12.132 34.9189C12.0798 34.9717 12.0089 35.0005 11.9359 35.0005ZM0.756891 22.9786L8.38963 26.474C8.45033 26.5016 8.4988 26.5504 8.52658 26.6108L12.022 34.2435L14.1746 32.0909L11.6832 23.3172L2.90938 20.8258L0.756891 22.9786Z" fill="black" fill-opacity="0.56"/>
<path d="M9.46346 24.2056L3.76868 29.9004L5.09969 31.2314L10.7945 25.5367L9.46346 24.2056Z" fill="#0085FF"/>
<path d="M5.0998 31.5095C5.02619 31.5095 4.95549 31.4802 4.90341 31.4281L3.57244 30.097C3.46397 29.9886 3.46397 29.8127 3.57244 29.7043L9.26728 24.0094C9.31936 23.9573 9.39005 23.928 9.46366 23.928C9.53728 23.928 9.60797 23.9573 9.66005 24.0094L10.991 25.3405C11.0995 25.449 11.0995 25.6248 10.991 25.7333L5.29618 31.4281C5.2441 31.4802 5.17355 31.5095 5.0998 31.5095ZM4.16161 29.9007L5.0998 30.839L10.4017 25.5369L9.46353 24.5986L4.16161 29.9007Z" fill="black" fill-opacity="0.56"/>
</svg>
