<svg width="29" height="66" viewBox="0 0 29 66" fill="none" xmlns="http://www.w3.org/2000/svg">
<path d="M19.3666 56.3L14.1712 61.496L8.97594 56.3006C8.34606 55.6708 7.40125 55.6708 6.77203 56.3006C6.14215 56.9305 6.14215 57.8753 6.77203 58.5045L13.0697 64.8022C13.384 65.1171 13.7777 65.274 14.1714 65.274C14.5651 65.274 14.9587 65.1165 15.2737 64.8016L21.5713 58.5039C22.2012 57.8741 22.2012 56.9292 21.5713 56.3C20.9408 55.6702 19.9966 55.6702 19.3668 56.3L19.3666 56.3Z" fill="#D9D9D9"/>
<path d="M21.5713 47.6422C20.9414 47.0123 19.9966 47.0123 19.3674 47.6422L14.172 52.8375L8.97673 47.6422C8.34685 47.0123 7.40204 47.0123 6.77282 47.6422C6.14295 48.2721 6.14295 49.2169 6.77282 49.8461L13.0705 56.1438C13.3848 56.4587 13.7785 56.6162 14.1722 56.6162C14.5659 56.6162 14.9595 56.4587 15.2745 56.1438L21.5721 49.8461C22.2014 49.2168 22.2014 48.272 21.5715 47.6422H21.5713Z" fill="#D9D9D9"/>
<path d="M28.34 29.0641V14.8941C28.34 7.10047 21.9636 0.724064 14.17 0.724064C6.37641 0.724064 0 7.10047 0 14.8941V29.0641C0 36.8577 6.37641 43.2341 14.17 43.2341C21.9636 43.2334 28.34 36.8572 28.34 29.0641ZM14.1706 40.0845C8.10922 40.0845 3.14953 35.1255 3.14953 29.0634V14.8941C3.14953 8.83266 8.1086 3.87297 14.1706 3.87297C20.232 3.87297 25.1917 8.83203 25.1917 14.8941V29.0641C25.1911 35.1255 20.232 40.0845 14.1706 40.0845Z" fill="#D9D9D9"/>
<path d="M14.1712 9.38438C13.3052 9.38438 12.5966 10.093 12.5966 10.9591V15.6825C12.5966 16.5486 13.3052 17.2572 14.1712 17.2572C15.0373 17.2572 15.7459 16.5486 15.7459 15.6825V10.9591C15.7453 10.093 15.0367 9.38438 14.1712 9.38438Z" fill="#D9D9D9"/>
</svg>
