<svg width="50" height="50" viewBox="0 0 50 50" fill="none" xmlns="http://www.w3.org/2000/svg">
<circle cx="25" cy="25" r="25" fill="#F93F04"/>
<path d="M36.3746 32.25H12.6251C12.2798 32.25 12.0001 32.5297 12.0001 32.875V34.1249C12.0001 34.4702 12.2798 34.7499 12.6251 34.7499H36.3746C36.72 34.7499 36.9996 34.4702 36.9996 34.1249V32.875C36.9996 32.5297 36.72 32.25 36.3746 32.25ZM15.1465 28.0809C15.3918 28.3481 15.7364 28.4997 16.0969 28.4993L21.196 28.4922C21.5984 28.4917 21.9951 28.3964 22.3538 28.2141L33.7192 22.4466C34.7637 21.9166 35.7001 21.1599 36.3371 20.169C37.0524 19.0565 37.1301 18.2514 36.8477 17.6827C36.5661 17.1135 35.8813 16.6956 34.5723 16.6104C33.4063 16.5346 32.2466 16.8417 31.2021 17.3713L27.3541 19.324L18.8113 16.1186C18.7086 16.0494 18.5893 16.0089 18.4657 16.0013C18.342 15.9937 18.2186 16.0192 18.1082 16.0753L15.5399 17.3788C15.1231 17.5901 15.0223 18.1463 15.3379 18.4932L21.4402 22.3252L17.4086 24.3712L14.5825 22.9466C14.4851 22.8975 14.3776 22.872 14.2685 22.8722C14.1595 22.8723 14.052 22.8981 13.9548 22.9474L12.3872 23.7431C11.9794 23.9501 11.872 24.49 12.1696 24.84L15.1465 28.0809Z" fill="white"/>
</svg>
